<mxfile host="app.diagrams.net" modified="2021-11-18T03:24:03.375Z" agent="5.0 (X11; Linux x86_64) AppleWebKit/537.36 (KHTML, like Gecko) Chrome/96.0.4664.45 Safari/537.36" etag="MzCyxjT0ugLTrx5nJx_T" version="15.8.0" type="gitlab">
  <diagram id="IDS3GxcP3OrKvvBgcsZW" name="Page-1">
    <mxGraphModel dx="3043" dy="2033" grid="1" gridSize="10" guides="1" tooltips="1" connect="1" arrows="1" fold="1" page="1" pageScale="1" pageWidth="827" pageHeight="1169" math="0" shadow="0">
      <root>
        <mxCell id="0" />
        <mxCell id="1" parent="0" />
        <mxCell id="90jFfgBRwMKQPnTh9fKm-1" value="&lt;b&gt;&lt;font style=&quot;font-size: 17px&quot;&gt;Associate Table&lt;/font&gt;&lt;/b&gt;" style="shape=process;whiteSpace=wrap;html=1;backgroundOutline=1;fillColor=#ffff88;strokeColor=#36393d;" parent="1" vertex="1">
          <mxGeometry x="-20" y="-200" width="1120" height="40" as="geometry" />
        </mxCell>
        <mxCell id="90jFfgBRwMKQPnTh9fKm-2" value="catagories" style="swimlane;fontSize=17;fillColor=#dae8fc;strokeColor=#6c8ebf;" parent="1" vertex="1">
          <mxGeometry x="233" y="-140" width="170" height="190" as="geometry" />
        </mxCell>
        <mxCell id="90jFfgBRwMKQPnTh9fKm-27" value="&lt;div&gt;id&lt;/div&gt;&lt;div&gt;category&lt;/div&gt;&lt;div&gt;&lt;div&gt;createdAt&lt;/div&gt;&lt;div&gt;updatedAt&lt;/div&gt;&lt;div&gt;deletedAt&lt;/div&gt;&lt;/div&gt;" style="text;html=1;align=left;verticalAlign=middle;resizable=0;points=[];autosize=1;strokeColor=none;fillColor=none;fontSize=17;" parent="90jFfgBRwMKQPnTh9fKm-2" vertex="1">
          <mxGeometry x="16" y="25" width="90" height="110" as="geometry" />
        </mxCell>
        <mxCell id="90jFfgBRwMKQPnTh9fKm-3" value="users" style="swimlane;fontSize=17;fillColor=#cdeb8b;strokeColor=#36393d;startSize=23;" parent="1" vertex="1">
          <mxGeometry x="10" y="68" width="170" height="220" as="geometry" />
        </mxCell>
        <mxCell id="90jFfgBRwMKQPnTh9fKm-26" value="&lt;div style=&quot;font-size: 17px&quot;&gt;&lt;font style=&quot;font-size: 17px&quot;&gt;id&lt;/font&gt;&lt;/div&gt;&lt;div style=&quot;font-size: 17px&quot;&gt;&lt;font style=&quot;font-size: 17px&quot;&gt;firstName&lt;/font&gt;&lt;/div&gt;&lt;div style=&quot;font-size: 17px&quot;&gt;&lt;font style=&quot;font-size: 17px&quot;&gt;lastName&lt;/font&gt;&lt;/div&gt;&lt;div style=&quot;font-size: 17px&quot;&gt;&lt;font style=&quot;font-size: 17px&quot;&gt;&lt;span&gt;email&lt;/span&gt;&lt;br&gt;&lt;/font&gt;&lt;/div&gt;&lt;div style=&quot;font-size: 17px&quot;&gt;&lt;font style=&quot;font-size: 17px&quot;&gt;password&lt;/font&gt;&lt;/div&gt;&lt;div style=&quot;font-size: 17px&quot;&gt;&lt;font style=&quot;font-size: 17px&quot;&gt;image&lt;/font&gt;&lt;/div&gt;&lt;div style=&quot;font-size: 17px&quot;&gt;&lt;font style=&quot;font-size: 17px&quot;&gt;&lt;div&gt;createdAt&lt;/div&gt;&lt;div&gt;updatedAt&lt;/div&gt;&lt;div&gt;deletedAt&lt;/div&gt;&lt;/font&gt;&lt;/div&gt;" style="text;html=1;align=left;verticalAlign=middle;resizable=0;points=[];autosize=1;strokeColor=none;fillColor=none;fontSize=15;" parent="90jFfgBRwMKQPnTh9fKm-3" vertex="1">
          <mxGeometry x="10" y="34" width="90" height="170" as="geometry" />
        </mxCell>
        <mxCell id="90jFfgBRwMKQPnTh9fKm-5" value="bookmarks" style="swimlane;fontSize=17;fillColor=#fa6800;fontColor=#000000;strokeColor=#C73500;" parent="1" vertex="1">
          <mxGeometry x="460" y="466" width="170" height="190" as="geometry" />
        </mxCell>
        <mxCell id="90jFfgBRwMKQPnTh9fKm-28" value="&lt;div&gt;id&lt;/div&gt;&lt;div&gt;userId&lt;/div&gt;&lt;div&gt;eventId&lt;/div&gt;&lt;div&gt;categoryId&lt;/div&gt;&lt;div&gt;&lt;div&gt;createdAt&lt;/div&gt;&lt;div&gt;updatedAt&lt;/div&gt;&lt;div&gt;deletedAt&lt;/div&gt;&lt;/div&gt;" style="text;html=1;align=left;verticalAlign=middle;resizable=0;points=[];autosize=1;strokeColor=none;fillColor=none;fontSize=17;" parent="90jFfgBRwMKQPnTh9fKm-5" vertex="1">
          <mxGeometry x="20" y="26" width="90" height="150" as="geometry" />
        </mxCell>
        <mxCell id="90jFfgBRwMKQPnTh9fKm-8" value="events" style="swimlane;fontSize=17;fillColor=#ffe6cc;strokeColor=#d79b00;startSize=23;" parent="1" vertex="1">
          <mxGeometry x="474" y="74" width="170" height="356" as="geometry" />
        </mxCell>
        <mxCell id="90jFfgBRwMKQPnTh9fKm-32" value="&lt;div&gt;id&lt;/div&gt;&lt;div&gt;title&lt;/div&gt;&lt;div&gt;photoEvent&lt;/div&gt;&lt;div&gt;dateEvent&lt;/div&gt;&lt;div&gt;eventTime&lt;/div&gt;&lt;div&gt;detail&lt;/div&gt;&lt;div&gt;linkMeet&lt;/div&gt;&lt;div&gt;events&lt;/div&gt;&lt;div&gt;speakerPhoto&lt;/div&gt;&lt;div&gt;speakerName&lt;/div&gt;&lt;div&gt;speakerJobTitle&lt;/div&gt;&lt;div&gt;userId&lt;/div&gt;&lt;div&gt;categoryId&lt;/div&gt;&lt;div&gt;&lt;div&gt;createdAt&lt;/div&gt;&lt;div&gt;updatedAt&lt;/div&gt;&lt;div&gt;deletedAt&lt;/div&gt;&lt;/div&gt;" style="text;html=1;align=left;verticalAlign=middle;resizable=0;points=[];autosize=1;strokeColor=none;fillColor=none;fontSize=17;" parent="90jFfgBRwMKQPnTh9fKm-8" vertex="1">
          <mxGeometry x="20" y="24" width="130" height="330" as="geometry" />
        </mxCell>
        <mxCell id="90jFfgBRwMKQPnTh9fKm-6" value="ratings" style="swimlane;fontSize=17;fillColor=#0050ef;fontColor=#ffffff;strokeColor=#001DBC;" parent="1" vertex="1">
          <mxGeometry x="920" y="136" width="170" height="190" as="geometry" />
        </mxCell>
        <mxCell id="90jFfgBRwMKQPnTh9fKm-30" value="&lt;div&gt;rating&lt;/div&gt;&lt;div&gt;categoryId&lt;/div&gt;&lt;div&gt;eventId&lt;/div&gt;&lt;div&gt;userId&lt;/div&gt;&lt;div&gt;id&lt;/div&gt;&lt;div&gt;&lt;div&gt;createdAt&lt;/div&gt;&lt;div&gt;updatedAt&lt;/div&gt;&lt;div&gt;deletedAt&lt;/div&gt;&lt;/div&gt;" style="text;html=1;align=left;verticalAlign=middle;resizable=0;points=[];autosize=1;strokeColor=none;fillColor=none;fontSize=17;" parent="90jFfgBRwMKQPnTh9fKm-6" vertex="1">
          <mxGeometry x="10" y="22" width="90" height="170" as="geometry" />
        </mxCell>
        <mxCell id="90jFfgBRwMKQPnTh9fKm-7" value="comments" style="swimlane;fontSize=17;fillColor=#a0522d;fontColor=#ffffff;strokeColor=#6D1F00;" parent="1" vertex="1">
          <mxGeometry x="830" y="-144" width="170" height="190" as="geometry" />
        </mxCell>
        <mxCell id="90jFfgBRwMKQPnTh9fKm-31" value="&lt;div&gt;id&lt;/div&gt;&lt;div&gt;comment&lt;/div&gt;&lt;div&gt;userId&lt;/div&gt;&lt;div&gt;eventId&lt;/div&gt;&lt;div&gt;&lt;div&gt;createdAt&lt;/div&gt;&lt;div&gt;updatedAt&lt;/div&gt;&lt;div&gt;deletedAt&lt;/div&gt;&lt;/div&gt;" style="text;html=1;align=left;verticalAlign=middle;resizable=0;points=[];autosize=1;strokeColor=none;fillColor=none;fontSize=17;" parent="90jFfgBRwMKQPnTh9fKm-7" vertex="1">
          <mxGeometry x="10" y="25" width="90" height="150" as="geometry" />
        </mxCell>
        <mxCell id="90jFfgBRwMKQPnTh9fKm-15" value="&lt;table border=&quot;1&quot; width=&quot;100%&quot; cellpadding=&quot;4&quot; style=&quot;width: 100% ; height: 100% ; border-collapse: collapse&quot;&gt;&lt;tbody&gt;&lt;tr style=&quot;background-color: #a7c942 ; color: #ffffff ; border: 1px solid #98bf21&quot;&gt;&lt;th align=&quot;left&quot;&gt;&lt;font color=&quot;#000000&quot; style=&quot;font-size: 15px&quot;&gt;No&lt;/font&gt;&lt;/th&gt;&lt;th style=&quot;text-align: center&quot;&gt;&lt;font color=&quot;#000000&quot; style=&quot;font-size: 15px&quot;&gt;List of Table&lt;/font&gt;&lt;/th&gt;&lt;th style=&quot;text-align: center&quot;&gt;&lt;font color=&quot;#000000&quot; style=&quot;font-size: 15px&quot;&gt;Created by&lt;/font&gt;&lt;/th&gt;&lt;/tr&gt;&lt;tr style=&quot;border: 1px solid #98bf21&quot;&gt;&lt;td style=&quot;text-align: center&quot;&gt;&lt;font style=&quot;font-size: 15px&quot;&gt;1&lt;/font&gt;&lt;/td&gt;&lt;td&gt;&lt;font style=&quot;font-size: 15px&quot;&gt;users&lt;/font&gt;&lt;/td&gt;&lt;td&gt;&lt;font style=&quot;font-size: 15px&quot;&gt;Gusti Arsyad&lt;/font&gt;&lt;/td&gt;&lt;/tr&gt;&lt;tr style=&quot;background-color: #eaf2d3 ; border: 1px solid #98bf21&quot;&gt;&lt;td&gt;&lt;font style=&quot;font-size: 15px&quot;&gt;2&lt;/font&gt;&lt;/td&gt;&lt;td&gt;&lt;font style=&quot;font-size: 15px&quot;&gt;&amp;nbsp;bookmarks&lt;/font&gt;&lt;/td&gt;&lt;td&gt;&lt;font style=&quot;font-size: 15px&quot;&gt;&lt;span style=&quot;font-family: &amp;#34;roboto&amp;#34; , &amp;#34;robotodraft&amp;#34; , &amp;#34;helvetica&amp;#34; , &amp;#34;arial&amp;#34; , sans-serif ; background-color: rgb(255 , 255 , 255)&quot;&gt;&lt;font style=&quot;font-size: 15px&quot;&gt;Yosias Ignatius Wellem&lt;/font&gt;&lt;/span&gt;&lt;br&gt;&lt;/font&gt;&lt;/td&gt;&lt;/tr&gt;&lt;tr style=&quot;border: 1px solid #98bf21&quot;&gt;&lt;td&gt;&lt;font style=&quot;font-size: 15px&quot;&gt;3&lt;/font&gt;&lt;/td&gt;&lt;td&gt;&lt;font style=&quot;font-size: 15px&quot;&gt;events &amp;amp;&amp;nbsp;&lt;/font&gt;catagories&lt;/td&gt;&lt;td&gt;&lt;span style=&quot;font-family: &amp;#34;roboto&amp;#34; , &amp;#34;robotodraft&amp;#34; , &amp;#34;helvetica&amp;#34; , &amp;#34;arial&amp;#34; , sans-serif ; background-color: rgb(255 , 255 , 255)&quot;&gt;&lt;font style=&quot;font-size: 15px&quot;&gt;Mochamad Dena Eka Putra&lt;/font&gt;&lt;/span&gt;&lt;/td&gt;&lt;/tr&gt;&lt;tr style=&quot;background-color: #eaf2d3 ; border: 1px solid #98bf21&quot;&gt;&lt;td&gt;&lt;font style=&quot;font-size: 15px&quot;&gt;4&lt;/font&gt;&lt;/td&gt;&lt;td&gt;&lt;font style=&quot;font-size: 15px&quot;&gt;comments &amp;amp;&amp;nbsp;&lt;/font&gt;ratings&lt;/td&gt;&lt;td&gt;&lt;font style=&quot;font-size: 15px&quot;&gt;Sagipul Ahyar&lt;/font&gt;&lt;/td&gt;&lt;/tr&gt;&lt;/tbody&gt;&lt;/table&gt;" style="text;html=1;strokeColor=#c0c0c0;fillColor=#ffffff;overflow=fill;rounded=0;fontSize=15;" parent="1" vertex="1">
          <mxGeometry x="340" y="690" width="470" height="160" as="geometry" />
        </mxCell>
        <mxCell id="90jFfgBRwMKQPnTh9fKm-35" value="" style="edgeStyle=entityRelationEdgeStyle;fontSize=12;html=1;endArrow=ERoneToMany;rounded=0;fontColor=#000000;entryX=0;entryY=0.5;entryDx=0;entryDy=0;" parent="1" edge="1">
          <mxGeometry width="100" height="100" relative="1" as="geometry">
            <mxPoint x="180" y="181" as="sourcePoint" />
            <mxPoint x="474" y="243" as="targetPoint" />
          </mxGeometry>
        </mxCell>
        <mxCell id="E_YeQ5dqIJ_NbmY8yUuL-16" value="one to many&amp;nbsp;" style="edgeLabel;html=1;align=center;verticalAlign=middle;resizable=0;points=[];" vertex="1" connectable="0" parent="90jFfgBRwMKQPnTh9fKm-35">
          <mxGeometry x="-0.0637" y="1" relative="1" as="geometry">
            <mxPoint as="offset" />
          </mxGeometry>
        </mxCell>
        <mxCell id="90jFfgBRwMKQPnTh9fKm-36" value="" style="edgeStyle=entityRelationEdgeStyle;fontSize=12;html=1;endArrow=ERoneToMany;rounded=0;fontColor=#000000;entryX=0;entryY=0.5;entryDx=0;entryDy=0;" parent="1" edge="1">
          <mxGeometry width="100" height="100" relative="1" as="geometry">
            <mxPoint x="180" y="126" as="sourcePoint" />
            <mxPoint x="830.0000000000005" y="-83" as="targetPoint" />
          </mxGeometry>
        </mxCell>
        <mxCell id="E_YeQ5dqIJ_NbmY8yUuL-17" value="one to many" style="edgeLabel;html=1;align=center;verticalAlign=middle;resizable=0;points=[];" vertex="1" connectable="0" parent="90jFfgBRwMKQPnTh9fKm-36">
          <mxGeometry x="0.2847" y="-2" relative="1" as="geometry">
            <mxPoint x="42" y="-21" as="offset" />
          </mxGeometry>
        </mxCell>
        <mxCell id="90jFfgBRwMKQPnTh9fKm-38" value="one to many" style="edgeStyle=entityRelationEdgeStyle;fontSize=12;html=1;endArrow=ERoneToMany;rounded=0;fontColor=#000000;" parent="1" edge="1">
          <mxGeometry width="100" height="100" relative="1" as="geometry">
            <mxPoint x="180" y="240" as="sourcePoint" />
            <mxPoint x="460" y="560" as="targetPoint" />
          </mxGeometry>
        </mxCell>
        <mxCell id="90jFfgBRwMKQPnTh9fKm-60" value="" style="edgeStyle=entityRelationEdgeStyle;fontSize=12;html=1;endArrow=ERoneToMany;rounded=0;fontColor=#000000;" parent="1" edge="1">
          <mxGeometry width="100" height="100" relative="1" as="geometry">
            <mxPoint x="402" y="-102" as="sourcePoint" />
            <mxPoint x="476" y="212" as="targetPoint" />
          </mxGeometry>
        </mxCell>
        <mxCell id="E_YeQ5dqIJ_NbmY8yUuL-15" value="one to many" style="edgeLabel;html=1;align=center;verticalAlign=middle;resizable=0;points=[];" vertex="1" connectable="0" parent="90jFfgBRwMKQPnTh9fKm-60">
          <mxGeometry x="-0.7749" y="1" relative="1" as="geometry">
            <mxPoint x="4" y="46" as="offset" />
          </mxGeometry>
        </mxCell>
        <mxCell id="90jFfgBRwMKQPnTh9fKm-61" value="" style="edgeStyle=entityRelationEdgeStyle;fontSize=12;html=1;endArrow=ERoneToMany;rounded=0;fontColor=#000000;entryX=0;entryY=0.5;entryDx=0;entryDy=0;" parent="1" edge="1">
          <mxGeometry width="100" height="100" relative="1" as="geometry">
            <mxPoint x="402" y="-10" as="sourcePoint" />
            <mxPoint x="462" y="545" as="targetPoint" />
          </mxGeometry>
        </mxCell>
        <mxCell id="E_YeQ5dqIJ_NbmY8yUuL-18" value="one to many" style="edgeLabel;html=1;align=center;verticalAlign=middle;resizable=0;points=[];" vertex="1" connectable="0" parent="90jFfgBRwMKQPnTh9fKm-61">
          <mxGeometry x="0.5154" y="3" relative="1" as="geometry">
            <mxPoint as="offset" />
          </mxGeometry>
        </mxCell>
        <mxCell id="90jFfgBRwMKQPnTh9fKm-63" value="" style="edgeStyle=entityRelationEdgeStyle;fontSize=12;html=1;endArrow=ERoneToMany;rounded=0;fontColor=#000000;" parent="1" edge="1">
          <mxGeometry width="100" height="100" relative="1" as="geometry">
            <mxPoint x="400" y="-81" as="sourcePoint" />
            <mxPoint x="920" y="209" as="targetPoint" />
          </mxGeometry>
        </mxCell>
        <mxCell id="E_YeQ5dqIJ_NbmY8yUuL-11" value="one to many" style="edgeLabel;html=1;align=center;verticalAlign=middle;resizable=0;points=[];" vertex="1" connectable="0" parent="90jFfgBRwMKQPnTh9fKm-63">
          <mxGeometry x="0.007" y="4" relative="1" as="geometry">
            <mxPoint x="-20" y="-16" as="offset" />
          </mxGeometry>
        </mxCell>
        <mxCell id="E_YeQ5dqIJ_NbmY8yUuL-1" value="" style="edgeStyle=entityRelationEdgeStyle;fontSize=12;html=1;endArrow=ERoneToMany;rounded=0;entryX=0;entryY=0.5;entryDx=0;entryDy=0;" edge="1" parent="1">
          <mxGeometry width="100" height="100" relative="1" as="geometry">
            <mxPoint x="650" y="190" as="sourcePoint" />
            <mxPoint x="830" y="-22" as="targetPoint" />
          </mxGeometry>
        </mxCell>
        <mxCell id="E_YeQ5dqIJ_NbmY8yUuL-9" value="one to many" style="edgeLabel;html=1;align=center;verticalAlign=middle;resizable=0;points=[];" vertex="1" connectable="0" parent="E_YeQ5dqIJ_NbmY8yUuL-1">
          <mxGeometry x="0.3157" y="1" relative="1" as="geometry">
            <mxPoint x="1" y="1" as="offset" />
          </mxGeometry>
        </mxCell>
        <mxCell id="E_YeQ5dqIJ_NbmY8yUuL-2" value="" style="edgeStyle=entityRelationEdgeStyle;fontSize=12;html=1;endArrow=ERoneToMany;rounded=0;entryX=1;entryY=0.5;entryDx=0;entryDy=0;" edge="1" parent="1" target="90jFfgBRwMKQPnTh9fKm-5">
          <mxGeometry width="100" height="100" relative="1" as="geometry">
            <mxPoint x="644" y="290" as="sourcePoint" />
            <mxPoint x="624" y="545" as="targetPoint" />
          </mxGeometry>
        </mxCell>
        <mxCell id="E_YeQ5dqIJ_NbmY8yUuL-7" value="one to many" style="edgeLabel;html=1;align=center;verticalAlign=middle;resizable=0;points=[];" vertex="1" connectable="0" parent="E_YeQ5dqIJ_NbmY8yUuL-2">
          <mxGeometry x="0.0853" relative="1" as="geometry">
            <mxPoint as="offset" />
          </mxGeometry>
        </mxCell>
        <mxCell id="E_YeQ5dqIJ_NbmY8yUuL-3" value="" style="edgeStyle=entityRelationEdgeStyle;fontSize=12;html=1;endArrow=ERoneToMany;rounded=0;" edge="1" parent="1">
          <mxGeometry width="100" height="100" relative="1" as="geometry">
            <mxPoint x="644" y="270" as="sourcePoint" />
            <mxPoint x="920" y="270" as="targetPoint" />
          </mxGeometry>
        </mxCell>
        <mxCell id="E_YeQ5dqIJ_NbmY8yUuL-10" value="one to many" style="edgeLabel;html=1;align=center;verticalAlign=middle;resizable=0;points=[];" vertex="1" connectable="0" parent="E_YeQ5dqIJ_NbmY8yUuL-3">
          <mxGeometry x="0.1574" relative="1" as="geometry">
            <mxPoint x="-1" as="offset" />
          </mxGeometry>
        </mxCell>
      </root>
    </mxGraphModel>
  </diagram>
</mxfile>
